<!DOCTYPE svg PUBLIC "-//W3C//DTD SVG 1.1//EN" "http://www.w3.org/Graphics/SVG/1.1/DTD/svg11.dtd">

<!-- Uploaded to: SVG Repo, www.svgrepo.com, Transformed by: SVG Repo Mixer Tools -->
<svg width="14px" height="14px" viewBox="-2 0 20 20" xmlns="http://www.w3.org/2000/svg" fill="#000000">

<g id="SVGRepo_bgCarrier" stroke-width="0"/>

<g id="SVGRepo_tracerCarrier" stroke-linecap="round" stroke-linejoin="round"/>

<g id="SVGRepo_iconCarrier"> <g id="reward-6" transform="translate(-4 -2)"> <path id="secondary" fill="#2ca9bc" d="M12,3a7,7,0,1,0,7,7,7,7,0,0,0-7-7Zm0,10a3,3,0,1,1,3-3A3,3,0,0,1,12,13Z"/> <path id="primary" d="M16.11,15.66,17,21l-5-1L7,21l.89-5.34" fill="none" stroke="#000000" stroke-linecap="round" stroke-linejoin="round" stroke-width="2"/> <path id="primary-2" data-name="primary" d="M12,13a3,3,0,1,1,3-3A3,3,0,0,1,12,13ZM12,3a7,7,0,1,0,7,7,7,7,0,0,0-7-7Z" fill="none" stroke="#000000" stroke-linecap="round" stroke-linejoin="round" stroke-width="2"/> </g> </g>

</svg>